<svg xmlns="http://www.w3.org/2000/svg" viewBox="0 0 600 100" fill="#000">
  <!-- Art Deco style "anyOS" inspired by Metropolis 1920 -->
  <!-- A -->
  <path d="M10,90 L30,10 L35,10 L55,90 L48,90 L42,68 L23,68 L17,90 Z M25,62 L40,62 L32.5,28 Z"/>
  <!-- N -->
  <path d="M65,90 L65,10 L72,10 L100,72 L100,10 L107,10 L107,90 L100,90 L72,28 L72,90 Z"/>
  <!-- Y -->
  <path d="M117,10 L117,10 L135,50 L153,10 L160,10 L138.5,55 L138.5,90 L131.5,90 L131.5,55 L110,10 Z"/>
  <!-- O -->
  <path d="M195,10 L220,10 Q240,10 240,30 L240,70 Q240,90 220,90 L195,90 Q175,90 175,70 L175,30 Q175,10 195,10 Z M195,17 Q182,17 182,30 L182,70 Q182,83 195,83 L220,83 Q233,83 233,70 L233,30 Q233,17 220,17 Z"/>
  <!-- S -->
  <path d="M265,30 Q265,17 280,17 L310,17 Q320,17 320,30 L320,35 L313,35 L313,30 Q313,24 305,24 L280,24 Q272,24 272,30 L272,45 Q272,50 280,50 L305,50 Q320,50 320,65 L320,75 Q320,90 305,90 L275,90 Q265,90 265,75 L265,70 L272,70 L272,75 Q272,83 280,83 L305,83 Q313,83 313,75 L313,65 Q313,57 305,57 L280,57 Q265,57 265,45 Z"/>
</svg>
