<?xml version="1.0" standalone="no"?>
<!DOCTYPE svg PUBLIC "-//W3C//DTD SVG 20010904//EN"
 "http://www.w3.org/TR/2001/REC-SVG-20010904/DTD/svg10.dtd">
<svg version="1.0" xmlns="http://www.w3.org/2000/svg"
 width="1536.000000pt" height="1024.000000pt" viewBox="0 0 1536.000000 1024.000000"
 preserveAspectRatio="xMidYMid meet">
<metadata>
Created by potrace 1.16, written by Peter Selinger 2001-2019
</metadata>
<g transform="translate(0.000000,1024.000000) scale(0.100000,-0.100000)"
fill="#000000" stroke="none">
<path d="M8262 6028 c-30 -6 -52 -11 -50 -13 2 -2 59 1 128 6 69 5 333 8 588
7 255 -2 448 0 430 4 -48 11 -1034 7 -1096 -4z"/>
<path d="M9897 6030 c-27 -5 -52 -12 -55 -16 -4 -4 4 -3 18 1 14 4 261 9 550
12 289 2 536 5 550 7 14 2 -209 3 -495 3 -286 1 -542 -3 -568 -7z"/>
<path d="M11175 6031 c6 -11 -165 -194 -173 -186 -3 3 26 38 66 78 40 40 72
76 72 80 0 4 -289 6 -642 5 l-643 -3 -42 -23 c-92 -49 -147 -132 -179 -271
-29 -131 -8 -196 77 -239 67 -33 133 -40 464 -47 350 -6 397 -11 430 -37 30
-23 31 -42 6 -100 -33 -76 -9 -73 -547 -76 l-480 -3 -85 -85 -84 -85 620 3
620 3 51 23 c118 54 187 175 193 340 3 85 -22 125 -97 160 -68 31 -181 39
-539 41 -238 2 -322 10 -350 33 -18 14 -16 83 3 119 30 58 36 59 573 59 321 0
492 4 496 10 4 6 10 8 15 5 8 -5 76 62 174 169 30 34 31 36 10 36 -8 0 -13 -4
-9 -9z"/>
<path d="M9440 5999 c25 -11 53 -30 63 -42 l18 -22 -11 22 c-11 23 -77 63
-102 63 -7 0 7 -10 32 -21z"/>
<path d="M8139 5982 c-48 -31 -91 -77 -115 -123 -23 -45 -9 -34 20 15 29 51
74 91 122 111 19 8 34 16 34 19 0 12 -17 5 -61 -22z"/>
<path d="M8206 5987 c-120 -47 -168 -113 -210 -289 -130 -543 -132 -588 -36
-635 45 -22 47 -22 621 -23 667 0 649 -2 733 83 39 39 57 68 73 117 33 97 115
494 121 582 6 98 -7 132 -62 161 -41 22 -45 22 -611 24 l-570 2 -59 -22z m964
-173 c52 -11 53 -31 9 -235 -22 -101 -44 -206 -49 -234 -6 -27 -15 -63 -21
-78 -23 -56 -29 -57 -496 -57 -393 1 -426 2 -408 17 20 15 20 15 -2 10 -13 -3
-23 -1 -23 4 0 4 14 73 30 151 79 375 87 399 135 419 24 9 778 12 825 3z"/>
<path d="M8327 5782 c-10 -10 -17 -23 -17 -28 0 -4 7 1 15 13 11 16 28 23 63
26 l47 3 -46 2 c-33 2 -50 -3 -62 -16z"/>
<path d="M9165 5791 c11 -4 23 -21 27 -37 6 -27 6 -27 5 6 -2 30 -6 35 -27 37
-22 2 -23 2 -5 -6z"/>
<path d="M8260 5555 c-6 -31 -10 -59 -7 -61 2 -2 9 21 16 52 6 32 9 59 7 61
-2 3 -10 -21 -16 -52z"/>
<path d="M9141 5519 c-7 -33 -10 -63 -8 -65 2 -3 10 23 16 57 7 33 10 63 8 65
-2 3 -10 -23 -16 -57z"/>
<path d="M8231 5419 c-7 -33 -10 -63 -8 -65 2 -3 10 23 16 57 7 33 10 63 8 65
-2 3 -10 -23 -16 -57z"/>
<path d="M9090 5288 c-1 -42 -5 -43 -357 -48 l-338 -6 333 -2 c320 -2 333 -1
352 18 18 18 28 50 15 50 -3 0 -5 -6 -5 -12z"/>
<path d="M9720 5940 c-39 -39 -72 -93 -84 -140 -4 -14 7 3 23 36 16 34 48 80
71 103 23 23 40 41 36 41 -3 0 -24 -18 -46 -40z"/>
<path d="M9532 5864 c-1 -23 -9 -79 -18 -124 -8 -45 -13 -84 -11 -87 9 -8 39
182 34 217 -4 34 -4 34 -5 -6z"/>
<path d="M4574 5778 c-19 -23 -19 -23 2 -6 18 16 57 18 405 21 l384 2 -386 3
-386 2 -19 -22z"/>
<path d="M5686 5792 c-2 -4 -7 -25 -10 -47 l-5 -40 11 42 11 43 401 3 401 2
-402 3 c-221 1 -404 -1 -407 -6z"/>
<path d="M6922 5794 c8 -7 108 -7 115 0 4 3 -22 6 -57 6 -35 0 -61 -3 -58 -6z"/>
<path d="M7586 5784 c-3 -9 -6 -23 -5 -32 1 -10 4 -6 8 8 6 24 12 25 91 31
l85 5 -86 2 c-71 2 -88 -1 -93 -14z"/>
<path d="M9947 5780 c-44 -35 -47 -140 -4 -140 6 0 3 6 -7 13 -16 11 -18 22
-12 60 8 51 21 66 69 77 29 7 30 8 6 9 -15 1 -38 -8 -52 -19z"/>
<path d="M10363 5793 c26 -2 67 -2 90 0 23 2 2 3 -48 3 -49 0 -68 -1 -42 -3z"/>
<path d="M6543 5780 c40 -8 107 -40 107 -52 0 -4 -19 2 -42 15 -42 22 -50 22
-475 25 -238 1 -433 -1 -433 -6 0 -5 -9 -51 -21 -103 -11 -52 -31 -146 -44
-209 -14 -63 -38 -178 -54 -255 -16 -76 -28 -142 -26 -145 2 -3 54 -5 117 -5
l113 0 21 90 c12 50 28 124 37 165 9 41 28 128 42 193 l27 117 86 0 c257 2
377 -2 389 -12 20 -17 16 -51 -37 -306 -27 -132 -50 -241 -50 -243 0 -2 56 -3
124 -1 l125 3 15 72 c9 40 27 124 40 187 14 63 32 148 41 188 18 85 22 144 11
191 -6 25 -5 32 4 26 9 -6 9 -3 1 13 -14 26 -89 62 -127 61 -26 -1 -25 -2 9
-9z"/>
<path d="M5455 5768 c11 -6 32 -22 48 -36 15 -14 27 -21 27 -14 0 12 -68 62
-85 62 -5 0 -1 -6 10 -12z"/>
<path d="M4550 5705 c-45 -69 -69 -85 -28 -18 37 58 40 63 34 63 -2 0 -19 -24
-37 -52 -17 -29 -38 -63 -47 -75 -13 -20 -13 -23 1 -23 8 0 14 7 13 15 -1 14
42 16 361 15 223 0 373 -4 391 -11 36 -12 44 -38 31 -98 -17 -82 15 -75 -401
-81 -358 -5 -375 -6 -413 -27 -80 -43 -123 -108 -131 -197 -6 -57 15 -102 60
-131 62 -41 113 -45 577 -45 l445 0 59 278 c63 300 67 350 37 391 -43 59 -48
60 -498 61 l-412 0 -42 -65z m387 -395 c-261 -5 -280 -6 -293 -24 -22 -31 -16
-37 11 -11 l24 25 259 0 259 0 -10 -50 -10 -50 -146 -2 -146 -2 145 -6 c161
-6 150 -10 170 69 6 23 13 41 16 38 7 -6 -17 -99 -29 -114 -7 -10 -74 -13
-271 -13 -316 0 -321 1 -296 91 6 21 20 41 33 47 14 7 116 10 292 9 l270 -1
-278 -6z"/>
<path d="M4630 5213 c0 -18 56 -36 77 -24 15 9 12 10 -17 11 -20 0 -41 5 -48
12 -8 8 -12 8 -12 1z"/>
<path d="M6835 5758 c-20 -61 -105 -493 -105 -536 0 -45 24 -97 53 -117 50
-33 96 -38 377 -45 l285 -6 -276 -2 c-301 -2 -347 4 -411 54 l-33 26 32 -31
c55 -52 110 -61 368 -62 127 -1 249 -5 272 -9 28 -5 44 -4 47 4 2 6 5 2 5 -9
2 -41 -22 -100 -51 -127 l-30 -28 -320 0 c-210 0 -317 3 -313 10 3 6 3 10 -2
10 -9 0 -183 -185 -183 -194 0 -7 115 113 148 154 11 14 23 22 26 19 3 -3 -23
-37 -59 -75 l-64 -69 417 -3 c376 -3 423 -1 477 15 76 22 135 78 158 149 25
76 187 825 187 864 0 19 -6 20 -119 20 l-118 0 -6 -37 c-3 -21 -17 -92 -31
-158 -14 -66 -36 -171 -50 -233 -13 -62 -26 -115 -29 -118 -10 -11 -446 -4
-471 7 -28 13 -35 38 -24 89 4 19 19 91 32 160 14 69 34 162 44 208 l19 82
-124 0 c-90 0 -125 -3 -128 -12z"/>
<path d="M7061 5589 c-7 -33 -10 -63 -8 -65 2 -3 10 23 16 57 7 33 10 63 8 65
-2 3 -10 -23 -16 -57z"/>
<path d="M10025 5630 c71 -8 632 -13 624 -6 -2 2 -159 6 -349 8 -190 3 -313 2
-275 -2z"/>
<path d="M7936 5549 c-10 -45 -15 -83 -13 -85 2 -2 12 32 22 77 9 44 15 82 13
85 -3 2 -12 -32 -22 -77z"/>
<path d="M10705 5611 c28 -5 63 -14 78 -20 40 -16 47 -13 14 5 -16 9 -54 17
-85 19 l-57 4 50 -8z"/>
<path d="M5210 5601 c33 -6 35 -9 41 -51 l6 -45 1 46 c2 51 -7 60 -56 58 -23
-1 -21 -3 8 -8z"/>
<path d="M5915 5564 c-3 -20 -4 -38 -2 -40 3 -3 8 11 11 30 5 25 13 36 29 39
19 4 19 4 -4 6 -23 1 -28 -4 -34 -35z"/>
<path d="M7525 5589 c-6 -8 -4 -10 4 -4 10 5 11 -4 7 -41 l-5 -49 10 44 c11
44 0 77 -16 50z"/>
<path d="M6361 5464 c-6 -37 -10 -68 -8 -71 3 -2 10 26 17 62 7 36 10 68 8 70
-3 3 -10 -25 -17 -61z"/>
<path d="M9620 5517 c0 -20 102 -87 132 -87 7 0 -7 10 -32 21 -25 11 -57 32
-72 46 -16 15 -28 24 -28 20z"/>
<path d="M7025 5420 c-10 -50 -16 -93 -13 -95 2 -3 12 36 22 86 9 50 15 93 13
95 -2 3 -12 -36 -22 -86z"/>
<path d="M5240 5487 c0 -13 -13 -17 -67 -20 l-68 -3 68 -2 c53 -2 69 1 74 13
3 9 3 19 -1 22 -3 4 -6 -1 -6 -10z"/>
<path d="M6745 5459 c-4 -23 -10 -37 -14 -31 -4 6 -7 -8 -7 -31 -1 -23 -4 -87
-7 -142 -5 -95 -5 -96 2 -15 5 47 16 123 25 168 10 46 15 86 13 89 -3 2 -8
-15 -12 -38z"/>
<path d="M9446 5414 c-10 -47 -15 -88 -13 -90 2 -3 12 34 21 82 10 47 15 88
13 90 -2 3 -12 -34 -21 -82z"/>
<path d="M5501 5424 c-8 -36 -11 -67 -9 -69 2 -3 10 25 17 61 8 36 11 67 9 69
-2 3 -10 -25 -17 -61z"/>
<path d="M6641 5419 c-7 -33 -10 -63 -8 -65 2 -3 10 23 16 57 7 33 10 63 8 65
-2 3 -10 -23 -16 -57z"/>
<path d="M4693 5463 c20 -2 54 -2 75 0 20 2 3 4 -38 4 -41 0 -58 -2 -37 -4z"/>
<path d="M9848 5413 c18 -2 45 -2 60 0 15 2 0 4 -33 4 -33 0 -45 -2 -27 -4z"/>
<path d="M10055 5403 c197 -7 393 -7 388 0 -2 4 -109 6 -236 5 -128 -1 -196
-3 -152 -5z"/>
<path d="M5856 5294 c-10 -47 -15 -88 -13 -90 2 -3 12 34 21 82 10 47 15 88
13 90 -2 3 -12 -34 -21 -82z"/>
<path d="M7880 5295 c-7 -36 -10 -68 -8 -70 3 -3 10 25 17 61 6 37 10 68 8 71
-3 2 -10 -26 -17 -62z"/>
<path d="M10901 5305 c-1 -11 -12 -46 -25 -77 -13 -32 -20 -55 -15 -53 13 9
50 117 46 134 -4 12 -5 11 -6 -4z"/>
<path d="M4310 5275 c-16 -49 -8 -141 14 -163 16 -16 16 -15 2 13 -18 34 -21
111 -6 151 6 15 9 29 6 31 -2 2 -9 -12 -16 -32z"/>
<path d="M9421 5298 c-3 -43 -46 -132 -88 -180 l-45 -53 50 52 c51 53 97 149
89 182 -4 14 -5 13 -6 -1z"/>
<path d="M7477 5271 l-6 -31 -198 -3 -198 -2 202 -3 201 -2 7 31 c4 17 5 33 2
35 -2 3 -7 -9 -10 -25z"/>
<path d="M6311 5229 c-7 -33 -10 -63 -8 -65 2 -3 10 23 16 57 7 33 10 63 8 65
-2 3 -10 -23 -16 -57z"/>
<path d="M9560 5215 c-12 -13 -27 -22 -33 -18 -6 3 -7 2 -4 -4 7 -11 -66 -86
-76 -78 -4 3 -5 2 -2 -2 3 -3 -5 -18 -17 -32 -44 -49 14 2 83 74 l68 70 483 5
483 5 -481 3 -481 2 -23 -25z"/>
<path d="M5546 5149 c-10 -45 -15 -83 -13 -85 2 -2 12 32 22 77 9 44 15 82 13
85 -3 2 -12 -32 -22 -77z"/>
<path d="M7870 5145 c0 -31 36 -82 70 -100 18 -9 34 -14 36 -12 3 2 -9 10 -25
17 -37 15 -50 29 -67 77 -8 23 -13 30 -14 18z"/>
<path d="M10804 5120 c-22 -23 -66 -51 -99 -65 -33 -14 -53 -25 -45 -25 31 0
116 49 155 89 50 53 42 54 -11 1z"/>
<path d="M6286 5108 c-4 -24 -9 -53 -13 -65 -5 -21 -2 -23 33 -21 38 1 39 1 6
5 -23 3 -32 9 -29 17 8 22 20 106 14 106 -2 0 -7 -19 -11 -42z"/>
<path d="M7711 5059 c-7 -33 -10 -63 -8 -65 2 -3 10 23 16 57 7 33 10 63 8 65
-2 3 -10 -23 -16 -57z"/>
<path d="M5810 5082 c0 -51 -3 -52 -145 -52 -97 0 -135 3 -138 13 -3 7 -6 5
-6 -5 -1 -16 12 -18 144 -18 l144 0 7 35 c3 20 4 39 0 42 -3 4 -6 -3 -6 -15z"/>
<path d="M4359 5074 c31 -22 124 -57 116 -44 -3 5 -12 10 -19 10 -7 0 -35 11
-62 25 -57 29 -68 32 -35 9z"/>
<path d="M6560 5044 c0 -5 -30 -8 -67 -6 -38 2 -86 -1 -108 -6 -34 -9 -24 -10
67 -11 98 -1 133 7 114 26 -3 4 -6 2 -6 -3z"/>
<path d="M4518 5023 c17 -2 47 -2 65 0 17 2 3 4 -33 4 -36 0 -50 -2 -32 -4z"/>
<path d="M7412 4964 c-7 -26 -17 -42 -22 -39 -6 4 -9 1 -8 -6 2 -7 -8 -16 -22
-20 -23 -6 -23 -7 -3 -8 26 -1 59 38 68 80 11 48 0 43 -13 -7z"/>
<path d="M7645 4834 c-11 -20 -35 -50 -55 -66 -19 -17 -26 -26 -15 -20 33 17
104 106 93 117 -2 2 -13 -12 -23 -31z"/>
<path d="M7388 4703 c18 -2 45 -2 60 0 15 2 0 4 -33 4 -33 0 -45 -2 -27 -4z"/>
</g>
</svg>
