<?xml version="1.0" standalone="no"?>
<!DOCTYPE svg PUBLIC "-//W3C//DTD SVG 20010904//EN"
 "http://www.w3.org/TR/2001/REC-SVG-20010904/DTD/svg10.dtd">
<svg version="1.0" xmlns="http://www.w3.org/2000/svg"
 width="961.000000pt" height="449.000000pt" viewBox="0 0 961.000000 449.000000"
 preserveAspectRatio="xMidYMid meet">
<metadata>
Created by potrace 1.16, written by Peter Selinger 2001-2019
</metadata>
<g transform="translate(0.000000,449.000000) scale(0.100000,-0.100000)"
fill="#000000" stroke="none">
<path d="M5417 3138 c-61 -8 -144 -47 -191 -88 -43 -38 -81 -116 -101 -205 -7
-33 -20 -89 -29 -125 -66 -270 -76 -325 -76 -404 0 -99 17 -129 83 -147 59
-16 1197 -14 1246 2 52 17 123 80 153 136 26 47 50 131 67 228 5 28 23 112 40
189 66 296 54 363 -70 399 -45 13 -138 16 -565 19 -281 2 -532 0 -557 -4z
m883 -213 c44 -23 44 -25 -16 -305 -9 -41 -22 -104 -29 -140 -17 -90 -31 -119
-60 -130 -16 -6 -195 -10 -446 -10 -382 0 -420 2 -426 17 -6 15 26 178 84 423
14 58 33 113 42 123 29 29 97 35 469 36 295 1 358 -1 382 -14z"/>
<path d="M6975 3122 c-35 -12 -68 -35 -111 -77 -63 -62 -81 -100 -114 -242
-31 -135 29 -216 184 -248 46 -10 93 -16 103 -13 11 3 166 0 346 -7 291 -11
329 -14 347 -30 11 -10 20 -29 20 -42 0 -32 -36 -100 -59 -113 -13 -6 -188
-10 -499 -10 l-480 0 -71 -77 c-72 -77 -78 -87 -62 -98 5 -3 274 -5 598 -6
684 0 663 -3 749 86 75 76 104 152 109 280 2 76 -24 124 -90 164 l-54 33 -188
9 c-104 5 -288 10 -411 13 -155 3 -227 8 -237 16 -21 17 -19 89 4 125 31 51
64 54 579 52 l462 -2 81 81 c66 66 80 86 74 103 l-6 21 -612 -1 c-541 -1 -618
-3 -662 -17z"/>
<path d="M1718 2883 c-8 -10 -30 -40 -48 -67 -26 -39 -30 -50 -19 -57 12 -8
97 -10 564 -13 156 -1 180 -12 179 -78 0 -25 -8 -57 -17 -72 l-17 -26 -168 -1
c-92 0 -250 0 -352 0 -177 -1 -187 -2 -244 -27 -99 -44 -174 -169 -152 -255 3
-13 20 -40 37 -60 59 -69 79 -71 599 -69 312 2 456 6 461 13 3 6 18 68 33 138
15 69 35 162 46 206 30 128 45 248 34 285 -6 20 -25 44 -52 64 l-44 31 -412 3
c-385 2 -413 1 -428 -15z m606 -462 c11 -1 2 -99 -10 -111 -8 -7 -414 -13
-512 -7 -45 3 -64 29 -50 68 19 56 26 57 306 54 141 -1 261 -3 266 -4z"/>
<path d="M2838 2893 c10 -4 10 -8 -3 -17 -9 -7 -25 -56 -39 -126 -14 -63 -45
-212 -71 -330 -25 -118 -44 -223 -41 -232 2 -10 -1 -19 -7 -20 -7 -1 38 -4 98
-7 124 -7 152 -4 152 12 0 7 10 53 21 102 12 50 35 155 52 235 42 196 46 206
107 215 130 21 373 12 405 -15 15 -12 10 -57 -21 -205 -56 -265 -65 -319 -52
-323 6 -2 9 -8 5 -13 -5 -9 52 -13 166 -11 75 1 72 1 66 11 -4 5 -2 11 3 13 6
1 19 48 31 103 11 55 29 138 40 185 45 199 52 243 48 295 -5 63 -24 90 -83
116 -36 16 -79 18 -465 18 -234 0 -419 -3 -412 -6z"/>
<path d="M3969 2880 c-9 -8 -24 -53 -33 -100 -10 -47 -25 -112 -33 -145 -23
-95 -53 -266 -53 -300 0 -17 13 -52 29 -77 49 -76 87 -83 504 -91 132 -3 171
-7 178 -18 11 -16 3 -62 -18 -102 -26 -51 -52 -55 -353 -53 -151 2 -287 0
-303 -3 -17 -4 -53 -31 -88 -66 -46 -47 -56 -62 -46 -72 9 -9 117 -12 422 -14
474 -3 478 -2 557 79 54 55 70 101 117 331 17 84 35 171 41 194 5 23 28 126
50 229 l41 187 -21 21 c-18 18 -33 20 -124 20 l-105 0 -11 -57 c-6 -32 -13
-65 -16 -73 -3 -8 -21 -94 -41 -190 -19 -96 -38 -185 -41 -198 -2 -13 -14 -27
-26 -31 -11 -4 -112 -6 -223 -5 -173 1 -207 4 -229 19 -22 14 -25 22 -21 48
12 65 76 373 80 387 19 58 18 69 -13 85 -40 21 -199 17 -221 -5z"/>
</g>
</svg>
